<svg xmlns="http://www.w3.org/2000/svg" xmlns:xlink="http://www.w3.org/1999/xlink" width="226" height="156" version="1.1" viewBox="0 0 226 156"><title>Image</title><g id="Mobile" fill="none" fill-rule="evenodd" stroke="none" stroke-width="1"><g id="iPhone-11-Copy" transform="translate(-99.000000, -58.000000)"><g id="Image" transform="translate(99.000000, 58.000000)"><rect id="Rectangle" width="221" height="151" x="2.5" y="2.5" fill="#FFF" stroke="#000" stroke-width="5" rx="8"/><g id="Group-4" transform="translate(3.000000, 72.000000)"><path id="Triangle-Copy-3" fill="#000" stroke="#000" stroke-width="5" d="M80.5,3.52457109 L154.937775,77.5 L6.06222466,77.5 L80.5,3.52457109 Z"/><polygon id="Triangle-Copy" fill="#FFF" points="80.5 0 131.819 51 29.181 51"/><g id="Group-2" fill="#000" transform="translate(25.000000, 26.000000)"><polygon id="Triangle" points="44 7 64 20 24 20" transform="translate(44.000000, 13.500000) rotate(20.000000) translate(-44.000000, -13.500000)"/><polygon id="Triangle-Copy-5" points="48 16 68 29 28 29" transform="translate(48.000000, 22.500000) rotate(20.000000) translate(-48.000000, -22.500000)"/><polygon id="Triangle-Copy-2" points="22 11 42 24 2 24" transform="translate(22.000000, 17.500000) rotate(-20.000000) translate(-22.000000, -17.500000)"/><polygon id="Triangle-Copy-4" points="31 17 51 30 11 30" transform="translate(31.000000, 23.500000) scale(-1, -1) rotate(-20.000000) translate(-31.000000, -23.500000)"/></g><g id="Group-2-Copy" fill="#000" transform="translate(102.000000, 44.500000) scale(-1, 1) translate(-102.000000, -44.500000) translate(67.000000, 26.000000)"><polygon id="Triangle" points="44 7 64 20 24 20" transform="translate(44.000000, 13.500000) rotate(20.000000) translate(-44.000000, -13.500000)"/><polygon id="Triangle-Copy-5" points="48 16 68 29 28 29" transform="translate(48.000000, 22.500000) rotate(20.000000) translate(-48.000000, -22.500000)"/><polygon id="Triangle-Copy-2" points="22 11 42 24 2 24" transform="translate(22.000000, 17.500000) rotate(-20.000000) translate(-22.000000, -17.500000)"/><polygon id="Triangle-Copy-4" points="31 17 51 30 11 30" transform="translate(31.000000, 23.500000) scale(-1, -1) rotate(-20.000000) translate(-31.000000, -23.500000)"/></g><path id="Triangle" stroke="#000" stroke-width="5" d="M80.5,3.52457109 L154.937775,77.5 L6.06222466,77.5 L80.5,3.52457109 Z"/></g><g id="Group-4-Copy" transform="translate(113.000000, 98.000000)"><path id="Triangle-Copy-3" fill="#000" stroke="#000" stroke-width="5" d="M54.5,3.51935323 L102.924912,51.5 L6.07508798,51.5 L54.5,3.51935323 Z"/><polygon id="Triangle-Copy" fill="#FFF" points="54.5 0 89 34 20 34"/><g id="Group-2" fill="#000" transform="translate(17.000000, 18.000000)"><polygon id="Triangle" points="29.529 4.735 42.985 13.54 16.108 13.485" transform="translate(29.546526, 9.137483) rotate(20.000000) translate(-29.546526, -9.137483)"/><polygon id="Triangle-Copy-5" points="32.214 10.816 45.671 19.621 18.794 19.566" transform="translate(32.232240, 15.218564) rotate(20.000000) translate(-32.232240, -15.218564)"/><polygon id="Triangle-Copy-2" points="14.786 7.438 28.206 16.188 1.329 16.242" transform="translate(14.767760, 11.840186) rotate(-20.000000) translate(-14.767760, -11.840186)"/><polygon id="Triangle-Copy-4" points="20.836 11.46 34.256 20.21 7.379 20.265" transform="translate(20.817955, 15.862517) scale(-1, -1) rotate(-20.000000) translate(-20.817955, -15.862517)"/></g><g id="Group-2-Copy" fill="#000" transform="translate(69.500000, 30.500000) scale(-1, 1) translate(-69.500000, -30.500000) translate(46.000000, 18.000000)"><polygon id="Triangle" points="29.529 4.735 42.985 13.54 16.108 13.485" transform="translate(29.546526, 9.137483) rotate(20.000000) translate(-29.546526, -9.137483)"/><polygon id="Triangle-Copy-5" points="32.214 10.816 45.671 19.621 18.794 19.566" transform="translate(32.232240, 15.218564) rotate(20.000000) translate(-32.232240, -15.218564)"/><polygon id="Triangle-Copy-2" points="14.786 7.438 28.206 16.188 1.329 16.242" transform="translate(14.767760, 11.840186) rotate(-20.000000) translate(-14.767760, -11.840186)"/><polygon id="Triangle-Copy-4" points="20.836 11.46 34.256 20.21 7.379 20.265" transform="translate(20.817955, 15.862517) scale(-1, -1) rotate(-20.000000) translate(-20.817955, -15.862517)"/></g><path id="Triangle" stroke="#000" stroke-width="5" d="M54.5,3.51935323 L102.924912,51.5 L6.07508798,51.5 L54.5,3.51935323 Z"/></g><circle id="Oval" cx="153" cy="52" r="17" fill="#000"/></g></g></g></svg>